<?xml version="1.0" encoding="UTF-8"?>
<svg xmlns="http://www.w3.org/2000/svg" xmlns:xlink="http://www.w3.org/1999/xlink" width="400px" height="732px" viewBox="0 0 400 731" version="1.1">
<g id="surface1">
<path style=" stroke:none;fill-rule:nonzero;fill:rgb(32.549021%,50.980395%,63.137257%);fill-opacity:1;" d="M 379.40625 573 L 376.695312 573 L 376.695312 571.484375 L 383.996094 571.484375 L 383.996094 573 L 381.300781 573 L 381.300781 580.5625 L 379.40625 580.5625 Z M 393.96875 573.394531 L 393.925781 573.394531 L 391.238281 580.5625 L 390.007812 580.5625 L 387.339844 573.394531 L 387.304688 573.394531 L 387.304688 580.5625 L 385.519531 580.5625 L 385.519531 571.484375 L 388.148438 571.484375 L 390.625 577.914062 L 393.089844 571.484375 L 395.710938 571.484375 L 395.710938 580.5625 L 393.96875 580.5625 Z M 393.96875 573.394531 "/>
<path style=" stroke:none;fill-rule:nonzero;fill:rgb(32.549021%,50.980395%,63.137257%);fill-opacity:1;" d="M 136.644531 387.355469 C 136.644531 387.355469 117.777344 398.316406 150.070312 402.027344 C 189.195312 406.484375 209.191406 405.847656 252.308594 397.691406 C 252.308594 397.691406 263.644531 404.792969 279.472656 410.945312 C 182.820312 452.335938 60.726562 408.546875 136.644531 387.355469 "/>
<path style=" stroke:none;fill-rule:nonzero;fill:rgb(32.549021%,50.980395%,63.137257%);fill-opacity:1;" d="M 124.832031 333.34375 C 124.832031 333.34375 103.671875 348.996094 135.992188 352.335938 C 177.785156 356.644531 210.789062 356.996094 267.902344 346.007812 C 267.902344 346.007812 275.804688 354.007812 288.222656 358.386719 C 171.363281 392.527344 41.203125 361.078125 124.832031 333.34375 "/>
<path style=" stroke:none;fill-rule:nonzero;fill:rgb(97.254902%,59.607846%,11.372549%);fill-opacity:1;" d="M 224.402344 241.726562 C 248.214844 269.121094 218.144531 293.773438 218.144531 293.773438 C 218.144531 293.773438 278.613281 262.582031 250.84375 223.527344 C 224.90625 187.101562 205.015625 169.003906 312.695312 106.605469 C 312.695312 106.605469 143.671875 148.785156 224.402344 241.726562 "/>
<path style=" stroke:none;fill-rule:nonzero;fill:rgb(32.549021%,50.980395%,63.137257%);fill-opacity:1;" d="M 352.234375 427.300781 C 352.234375 427.300781 366.195312 438.796875 336.855469 447.691406 C 281.066406 464.578125 104.652344 469.675781 55.644531 448.363281 C 38.03125 440.707031 71.066406 430.078125 81.457031 427.847656 C 92.296875 425.5 98.488281 425.9375 98.488281 425.9375 C 78.898438 412.148438 -28.144531 453.015625 44.117188 464.71875 C 241.183594 496.648438 403.347656 450.339844 352.234375 427.300781 "/>
<path style=" stroke:none;fill-rule:nonzero;fill:rgb(32.549021%,50.980395%,63.137257%);fill-opacity:1;" d="M 145.71875 277.382812 C 145.71875 277.382812 55.984375 298.679688 113.941406 306.414062 C 138.410156 309.6875 187.195312 308.945312 232.636719 305.140625 C 269.773438 302.011719 307.0625 295.355469 307.0625 295.355469 C 307.0625 295.355469 293.964844 300.960938 284.492188 307.421875 C 193.367188 331.367188 17.332031 320.230469 68.011719 295.734375 C 110.871094 275.035156 145.71875 277.382812 145.71875 277.382812 "/>
<path style=" stroke:none;fill-rule:nonzero;fill:rgb(32.549021%,50.980395%,63.137257%);fill-opacity:1;" d="M 306.691406 367.285156 C 399.324219 319.191406 356.492188 272.972656 326.597656 279.199219 C 319.273438 280.722656 316.003906 282.042969 316.003906 282.042969 C 316.003906 282.042969 318.726562 277.785156 323.921875 275.945312 C 383.0625 255.167969 428.542969 337.214844 304.828125 369.710938 C 304.828125 369.710938 306.261719 368.429688 306.691406 367.285156 "/>
<path style=" stroke:none;fill-rule:nonzero;fill:rgb(97.254902%,59.607846%,11.372549%);fill-opacity:1;" d="M 250.84375 5.847656 C 250.84375 5.847656 302.144531 57.125 202.1875 135.96875 C 122.03125 199.21875 183.90625 235.28125 202.152344 276.484375 C 155.363281 234.304688 121.027344 197.175781 144.0625 162.617188 C 177.875 111.890625 271.542969 87.296875 250.84375 5.847656 "/>
<path style=" stroke:none;fill-rule:nonzero;fill:rgb(32.549021%,50.980395%,63.137257%);fill-opacity:1;" d="M 154.820312 497.609375 C 243.734375 503.296875 380.273438 494.453125 383.507812 452.417969 C 383.507812 452.417969 377.292969 468.355469 310.023438 481.007812 C 234.132812 495.277344 140.53125 493.613281 85.015625 484.46875 C 85.019531 484.464844 96.382812 493.867188 154.820312 497.609375 "/>
<path style=" stroke:none;fill-rule:nonzero;fill:rgb(32.549021%,50.980395%,63.137257%);fill-opacity:1;" d="M 140.25 658.230469 C 131.859375 665.5 123 669.582031 115.050781 669.582031 C 103.703125 669.582031 97.574219 662.785156 97.574219 651.878906 C 97.574219 640.082031 104.140625 631.460938 130.496094 631.460938 L 140.246094 631.460938 L 140.246094 658.230469 M 163.394531 684.324219 L 163.394531 603.558594 C 163.394531 582.925781 151.617188 569.3125 123.21875 569.3125 C 106.640625 569.3125 92.121094 573.402344 80.320312 578.617188 L 83.726562 592.914062 C 93.019531 589.507812 105.046875 586.335938 116.851562 586.335938 C 133.210938 586.335938 140.25 592.914062 140.25 606.519531 L 140.25 616.726562 L 132.085938 616.726562 C 92.339844 616.726562 74.414062 632.140625 74.414062 655.277344 C 74.414062 675.246094 86.226562 686.59375 108.472656 686.59375 C 122.769531 686.59375 133.445312 680.699219 143.421875 672.066406 L 145.234375 684.324219 Z M 163.394531 684.324219 "/>
<path style=" stroke:none;fill-rule:nonzero;fill:rgb(32.549021%,50.980395%,63.137257%);fill-opacity:1;" d="M 240.636719 684.324219 L 211.769531 684.324219 L 177.027344 571.359375 L 202.238281 571.359375 L 223.792969 640.765625 L 228.585938 661.636719 C 239.492188 631.457031 247.203125 600.839844 251.0625 571.359375 L 275.585938 571.359375 C 269.015625 608.558594 257.191406 649.386719 240.636719 684.324219 "/>
<path style=" stroke:none;fill-rule:nonzero;fill:rgb(32.549021%,50.980395%,63.137257%);fill-opacity:1;" d="M 351.375 658.230469 C 342.96875 665.5 334.09375 669.582031 326.144531 669.582031 C 314.816406 669.582031 308.671875 662.785156 308.671875 651.878906 C 308.671875 640.082031 315.253906 631.460938 341.605469 631.460938 L 351.375 631.460938 L 351.375 658.230469 M 374.515625 684.324219 L 374.515625 603.558594 C 374.515625 582.925781 362.707031 569.3125 334.347656 569.3125 C 317.757812 569.3125 303.230469 573.402344 291.433594 578.617188 L 294.835938 592.914062 C 304.132812 589.507812 316.183594 586.335938 327.980469 586.335938 C 344.324219 586.335938 351.375 592.914062 351.375 606.519531 L 351.375 616.726562 L 343.195312 616.726562 C 303.441406 616.726562 285.519531 632.140625 285.519531 655.277344 C 285.519531 675.246094 297.324219 686.59375 319.566406 686.59375 C 333.875 686.59375 344.542969 680.699219 354.539062 672.066406 L 356.355469 684.324219 Z M 374.515625 684.324219 "/>
<path style=" stroke:none;fill-rule:nonzero;fill:rgb(32.549021%,50.980395%,63.137257%);fill-opacity:1;" d="M 49.035156 703.507812 C 42.4375 713.132812 31.78125 720.746094 20.113281 725.054688 L 8.6875 711.621094 C 17.566406 707.066406 25.183594 699.714844 28.71875 692.863281 C 31.78125 686.773438 33.046875 678.921875 33.046875 660.152344 L 33.046875 531.183594 L 57.636719 531.183594 L 57.636719 658.382812 C 57.636719 683.480469 55.628906 693.621094 49.035156 703.507812 "/>
</g>
</svg>
